<?xml version="1.0" encoding="UTF-8"?>
<svg width="1284px" height="1345px" viewBox="0 0 1284 1345" version="1.1" xmlns="http://www.w3.org/2000/svg" xmlns:xlink="http://www.w3.org/1999/xlink">
    <!-- Generator: Sketch 48.2 (47327) - http://www.bohemiancoding.com/sketch -->
    <title>Group 14</title>
    <desc>Created with Sketch.</desc>
    <defs></defs>
    <g id="RaidParty-Landing-Page-2" stroke="none" stroke-width="1" fill="none" fill-rule="evenodd" transform="translate(-31.000000, -82.000000)" opacity="0.252547554">
        <g id="Group-14" transform="translate(35.000000, 83.000000)" stroke="#E4E4E4" stroke-width="4">
            <circle id="1" cx="624" cy="694" r="18"></circle>
            <circle id="2" transform="translate(710.953451, 603.471323) rotate(38.000000) translate(-710.953451, -603.471323) " cx="710.953451" cy="603.471323" r="18"></circle>
            <circle id="3" transform="translate(663.732759, 453.250631) rotate(-15.000000) translate(-663.732759, -453.250631) " cx="663.732759" cy="453.250631" r="18"></circle>
            <circle id="4" transform="translate(441.566912, 406.084784) rotate(19.000000) translate(-441.566912, -406.084784) " cx="441.566912" cy="406.084784" r="18"></circle>
            <circle id="5" transform="translate(396.507268, 652.025140) rotate(104.000000) translate(-396.507268, -652.025140) " cx="396.507268" cy="652.02514" r="18"></circle>
            <circle id="6" transform="translate(350.490764, 836.008636) rotate(148.000000) translate(-350.490764, -836.008636) " cx="350.490764" cy="836.008636" r="18"></circle>
            <circle id="7" transform="translate(488.119579, 994.637451) rotate(68.000000) translate(-488.119579, -994.637451) " cx="488.119579" cy="994.637451" r="18"></circle>
            <rect id="8" x="785.687351" y="1020.20522" width="36" height="36"></rect>
            <rect id="9" transform="translate(943.953451, 887.471323) rotate(38.000000) translate(-943.953451, -887.471323) " x="925.953451" y="869.471323" width="36" height="36"></rect>
            <rect id="10" transform="translate(1034.732759, 499.250631) rotate(-15.000000) translate(-1034.732759, -499.250631) " x="1016.73276" y="481.250631" width="36" height="36"></rect>
            <rect id="11" transform="translate(895.566912, 223.084784) rotate(19.000000) translate(-895.566912, -223.084784) " x="877.566912" y="205.084784" width="36" height="36"></rect>
            <rect id="12" transform="translate(533.507268, 177.025140) rotate(104.000000) translate(-533.507268, -177.025140) " x="515.507268" y="159.02514" width="36" height="36"></rect>
            <rect id="13" transform="translate(168.490764, 319.008636) rotate(148.000000) translate(-168.490764, -319.008636) " x="150.490764" y="301.008636" width="36" height="36"></rect>
            <rect id="14" transform="translate(120.119579, 737.637451) rotate(68.000000) translate(-120.119579, -737.637451) " x="102.119579" y="719.637451" width="36" height="36"></rect>
            <g id="15" transform="translate(192.687351, 1109.205223)">
                <path d="M36,0 L0,36 L36,0 Z" id="Rectangle-8-Copy"></path>
                <path d="M0,0 L36,36 L0,0 Z" id="Rectangle-8-Copy-2"></path>
            </g>
            <g id="16" transform="translate(579.953451, 1218.471323) rotate(38.000000) translate(-579.953451, -1218.471323) translate(561.953451, 1200.471323)">
                <path d="M36,0 L0,36 L36,0 Z" id="Rectangle-8-Copy"></path>
                <path d="M0,0 L36,36 L0,0 Z" id="Rectangle-8-Copy-2"></path>
            </g>
            <g id="17" transform="translate(1118.732759, 1201.250631) rotate(-15.000000) translate(-1118.732759, -1201.250631) translate(1100.732759, 1183.250631)">
                <path d="M36,0 L0,36 L36,0 Z" id="Rectangle-8-Copy"></path>
                <path d="M0,0 L36,36 L0,0 Z" id="Rectangle-8-Copy-2"></path>
            </g>
            <g id="18" transform="translate(1172.566912, 786.084784) rotate(19.000000) translate(-1172.566912, -786.084784) translate(1154.566912, 768.084784)">
                <path d="M36,0 L0,36 L36,0 Z" id="Rectangle-8-Copy"></path>
                <path d="M0,0 L36,36 L0,0 Z" id="Rectangle-8-Copy-2"></path>
            </g>
            <g id="19" transform="translate(1128.507268, 270.025140) rotate(104.000000) translate(-1128.507268, -270.025140) translate(1110.507268, 252.025140)">
                <path d="M36,0 L0,36 L36,0 Z" id="Rectangle-8-Copy"></path>
                <path d="M0,0 L36,36 L0,0 Z" id="Rectangle-8-Copy-2"></path>
            </g>
            <g id="20" transform="translate(760.490764, 25.008636) rotate(148.000000) translate(-760.490764, -25.008636) translate(742.490764, 7.008636)">
                <path d="M36,0 L0,36 L36,0 Z" id="Rectangle-8-Copy"></path>
                <path d="M0,0 L36,36 L0,0 Z" id="Rectangle-8-Copy-2"></path>
            </g>
            <g id="21" transform="translate(302.119579, 129.637451) rotate(68.000000) translate(-302.119579, -129.637451) translate(284.119579, 111.637451)">
                <path d="M36,0 L0,36 L36,0 Z" id="Rectangle-8-Copy"></path>
                <path d="M0,0 L36,36 L0,0 Z" id="Rectangle-8-Copy-2"></path>
            </g>
            <polygon id="22" points="75.4719607 345.205223 96.2565704 381.205223 54.687351 381.205223"></polygon>
            <polygon id="23" transform="translate(28.147754, 942.185700) rotate(38.000000) translate(-28.147754, -942.185700) " points="28.1477535 924.1857 48.9323632 960.1857 7.36314384 960.1857"></polygon>
            <polygon id="24" transform="translate(253.422485, 1267.971341) rotate(-15.000000) translate(-253.422485, -1267.971341) " points="253.422485 1249.97134 274.207095 1285.97134 232.637875 1285.97134"></polygon>
            <polygon id="25" transform="translate(847.199812, 1316.991364) rotate(19.000000) translate(-847.199812, -1316.991364) " points="847.199812 1298.99136 867.984422 1334.99136 826.415203 1334.99136"></polygon>
            <polygon id="26" transform="translate(1218.180926, 1082.727035) rotate(104.000000) translate(-1218.180926, -1082.727035) " points="1218.18093 1064.72704 1238.96554 1100.72704 1197.39632 1100.72704"></polygon>
            <polygon id="27" transform="translate(1267.852246, 549.484254) rotate(148.000000) translate(-1267.852246, -549.484254) " points="1267.85225 531.484254 1288.63686 567.484254 1247.06764 567.484254"></polygon>
            <polygon id="28" transform="translate(1082.162712, 78.219296) rotate(68.000000) translate(-1082.162712, -78.219296) " points="1082.16271 60.2192963 1102.94732 96.2192963 1061.3781 96.2192963"></polygon>
        </g>
    </g>
</svg>