<?xml version="1.0" encoding="UTF-8"?>
<svg width="128px" height="122px" viewBox="0 0 128 122" version="1.1" xmlns="http://www.w3.org/2000/svg" xmlns:xlink="http://www.w3.org/1999/xlink">
    <!-- Generator: Sketch 48.2 (47327) - http://www.bohemiancoding.com/sketch -->
    <title>medal</title>
    <desc>Created with Sketch.</desc>
    <defs></defs>
    <g id="RaidParty-Landing-Page-2" stroke="none" stroke-width="1" fill="none" fill-rule="evenodd" transform="translate(-620.000000, -1250.000000)">
        <g id="Group-12" transform="translate(211.000000, 1218.000000)" fill="#24CEC7" fill-rule="nonzero">
            <g id="Group-11-Copy" transform="translate(315.000000, 0.000000)">
                <g id="medal" transform="translate(94.000000, 32.000000)">
                    <path d="M40.9076023,21.1805 C39.9305107,20.204 38.3490994,20.204 37.3720078,21.1805 C36.3974113,22.1595 36.3974113,23.744 37.3720078,24.723 C38.3488499,25.6995 39.9305107,25.6995 40.9076023,24.723 C41.8821988,23.744 41.8821988,22.15925 40.9076023,21.1805 Z" id="Shape"></path>
                    <path d="M127.028398,96.3255 L104.046784,73.061 C108.830441,65.475 111.350019,56.76425 111.350019,47.73575 C111.350019,21.50725 90.0533645,0.16875 63.8757427,0.16875 C37.6981209,0.16875 16.4017154,21.507 16.4017154,47.7355 C16.4017154,56.764 18.9212943,65.47475 23.7049513,73.0605 L0.722838207,96.325 C0.0761013645,96.9795 -0.159438596,97.937 0.10928655,98.8175 C0.377762183,99.6985 1.10758674,100.36025 2.00882651,100.541 L16.4124444,103.42775 C16.8969981,103.52475 17.3391345,103.7615 17.6852086,104.107 C18.0357739,104.4595 18.2733099,104.905 18.3716179,105.38875 L21.2499961,119.819 C21.4308928,120.72625 22.0968421,121.45975 22.9813645,121.726 C23.2179025,121.797 23.4599298,121.832 23.699961,121.832 C24.3569279,121.832 24.9986745,121.57225 25.4749942,121.09075 L52.3826901,93.889 C56.1303704,94.82575 59.9890838,95.30225 63.8757427,95.30225 C67.7624016,95.30225 71.6213645,94.82575 75.3687953,93.889 L102.276741,121.09075 C102.75306,121.57225 103.394807,121.832 104.051774,121.832 C104.291556,121.832 104.533832,121.79725 104.77037,121.726 C105.654893,121.45975 106.320842,120.72625 106.501739,119.819 L109.378869,105.3955 C109.478175,104.905 109.715961,104.45975 110.060788,104.11275 C110.412351,103.76175 110.854737,103.52475 111.340538,103.42775 L125.742659,100.54125 C126.643649,100.3605 127.373224,99.69875 127.642199,98.81775 C127.910674,97.93725 127.674885,96.97975 127.028398,96.3255 Z M25.2299727,114.2255 L23.2703002,104.40125 C23.1445458,103.78075 22.9396959,103.186 22.6694737,102.624 L31.3275634,93.734 C32.2911813,92.74425 32.2717193,91.1595 31.2843977,90.1935 C30.2963275,89.22825 28.7151657,89.2475 27.7507992,90.23675 L19.1231501,99.0955 C18.5742222,98.836 17.9948538,98.639 17.3910331,98.5185 L7.53852632,96.54375 L26.6379727,77.20875 C31.9730526,83.9595 39.0387524,89.15325 47.015922,92.20175 L25.2299727,114.2255 Z M75.4301754,88.69425 C75.4279298,88.695 75.4256842,88.6955 75.4236881,88.696 C71.6782534,89.757 67.7930916,90.29525 63.8752437,90.29525 C59.9573957,90.29525 56.0722339,89.75675 52.3265497,88.69575 C52.3245536,88.69525 52.3225575,88.69475 52.3205614,88.69425 C52.3155712,88.69275 52.3103314,88.69175 52.3053411,88.69025 C42.8802495,86.01525 34.5894425,80.06975 28.9599376,71.9485 C24.0128499,64.8105 21.3979571,56.438 21.3979571,47.7355 C21.3982066,24.26775 40.4534893,5.1755 63.8752437,5.1755 C87.2969981,5.1755 106.352031,24.26775 106.352031,47.73525 C106.352031,56.43775 103.737138,64.81025 98.7903002,71.94825 C93.1607953,80.0695 84.8699883,86.015 75.4446472,88.69 C75.4399064,88.69175 75.4349162,88.69275 75.4301754,88.69425 Z M110.360951,98.51775 C109.75763,98.6385 109.178261,98.835 108.629333,99.0945 L100.718285,90.95675 C99.7554152,89.966 98.1737544,89.94525 97.1849357,90.91025 C96.1963665,91.875 96.1756569,93.46 97.1385263,94.4505 L105.082012,102.62175 C104.811041,103.1855 104.605193,103.7825 104.47894,104.4075 L102.520515,114.22525 L80.7348148,92.2015 C88.7119844,89.153 95.7774347,83.95925 101.112764,77.20875 L120.211961,96.54325 L110.360951,98.51775 Z" id="Shape"></path>
                    <path d="M88.6792982,38.52475 C88.3851228,37.61825 87.6031501,36.95775 86.6622378,36.8205 L72.3961014,34.744 L66.0185575,21.7925 C65.5978791,20.938 64.7293255,20.39675 63.7779337,20.39675 C63.7776842,20.39675 63.7776842,20.39675 63.7776842,20.39675 C62.8267914,20.39675 61.9579883,20.93775 61.5368109,21.79225 L55.1570214,34.74425 L40.8906355,36.82075 C39.9494737,36.958 39.167501,37.61825 38.873575,38.525 C38.5796491,39.43125 38.8249201,40.42625 39.5060897,41.09125 L49.8289279,51.17325 L47.3921871,65.41025 C47.231501,66.3495 47.6167485,67.299 48.3864951,67.859 C49.1559922,68.419 50.1762495,68.49275 51.0178558,68.04925 L63.7774347,61.32675 L76.534269,68.04925 C76.9000546,68.242 77.2992749,68.337 77.6972476,68.337 C78.2152359,68.337 78.730729,68.17575 79.1658791,67.859 C79.9353762,67.299 80.3208733,66.34975 80.1601871,65.41025 L77.7234464,51.17325 L88.0462846,41.09125 C88.7282027,40.426 88.9729747,39.431 88.6792982,38.52475 Z M73.2950955,48.506 C72.7062456,49.08125 72.437271,49.90975 72.5762495,50.72225 L74.3792281,61.25575 L64.9409123,56.28225 C64.2128343,55.8985 63.3430331,55.8985 62.6149552,56.28225 L53.1738947,61.25625 L54.9768733,50.72225 C55.1158519,49.91 54.8468772,49.0815 54.2582768,48.50625 L46.6201949,41.04675 L57.1758285,39.51025 C57.9897388,39.3915 58.6933645,38.87925 59.0574035,38.1405 L63.7776842,28.55775 L68.4962183,38.14025 C68.8600078,38.87925 69.5636335,39.3915 70.3777934,39.51025 L80.9334269,41.04675 L73.2950955,48.506 Z" id="Shape"></path>
                    <path d="M63.8752437,10.1825 C57.6214581,10.1825 51.4235634,11.76525 45.9517505,14.75975 C44.7403665,15.4225 44.2949864,16.9435 44.9564444,18.15675 C45.6179025,19.37075 47.1361871,19.8165 48.3468226,19.154 C53.0865653,16.56025 58.456078,15.18925 63.8752437,15.18925 C81.7862612,15.18925 96.3575517,29.789 96.3575517,47.735 C96.3575517,65.681 81.7862612,80.28075 63.8752437,80.28075 C45.9642261,80.28075 31.3929357,65.681 31.3929357,47.735 C31.3929357,42.302 32.7620117,36.9215 35.3519532,32.17475 C36.0139103,30.9615 35.5687797,29.4405 34.3578947,28.77725 C33.1475088,28.11475 31.6289747,28.56 30.9670175,29.77325 C27.9761092,35.25425 26.3954464,41.4655 26.3954464,47.73525 C26.3954464,68.44175 43.2088577,85.288 63.8749942,85.288 C84.5411306,85.288 101.354542,68.44175 101.354542,47.73525 C101.354542,27.02875 84.5413801,10.1825 63.8752437,10.1825 Z" id="Shape"></path>
                </g>
            </g>
        </g>
    </g>
</svg>