<?xml version="1.0" encoding="UTF-8"?>
<svg width="128px" height="128px" viewBox="0 0 128 128" version="1.1" xmlns="http://www.w3.org/2000/svg" xmlns:xlink="http://www.w3.org/1999/xlink">
    <!-- Generator: Sketch 48.2 (47327) - http://www.bohemiancoding.com/sketch -->
    <title>pacman</title>
    <desc>Created with Sketch.</desc>
    <defs></defs>
    <g id="RaidParty-Landing-Page-2" stroke="none" stroke-width="1" fill="none" fill-rule="evenodd" transform="translate(-936.000000, -1246.000000)">
        <g id="Group-12" transform="translate(211.000000, 1218.000000)" fill="#24CEC7" fill-rule="nonzero">
            <g id="Group-11-Copy-2" transform="translate(630.000000, 0.000000)">
                <g id="pacman" transform="translate(95.000000, 28.000000)">
                    <path d="M14,66.5 C12.62,66.5 11.5,67.62 11.5,69 C11.5,70.38 12.62,71.5 14,71.5 C15.38,71.5 16.5,70.38 16.5,69 C16.5,67.62 15.38,66.5 14,66.5 Z" id="Shape"></path>
                    <path d="M69.052,64.0165 L110.07125,23.75425 C110.5445,23.28975 110.81375,22.65625 110.82,21.99325 C110.826,21.33025 110.5685,20.69175 110.104,20.21875 C104.32575,14.333 97.168,9.34775 89.4045,5.80225 C81.093,2.00625 72.308,0 64,0 C55.56925,0 47.29775,1.73475 39.41525,5.15625 C31.84125,8.44375 24.99125,13.12025 19.05575,19.05575 C13.12025,24.99125 8.44375,31.84125 5.15625,39.4155 C1.73475,47.29775 0,55.56925 0,64 C0,72.43075 1.73475,80.70225 5.15625,88.5845 C8.4435,96.15875 13.12,103.00875 19.05575,108.94425 C24.99125,114.87975 31.8415,119.55625 39.41525,122.84375 C47.29775,126.26525 55.56925,128 64,128 C72.20425,128 80.895,126.03375 89.13275,122.31375 C96.817,118.84375 103.9275,113.96175 109.695,108.1955 C110.164,107.72675 110.4275,107.09075 110.4275,106.42775 C110.4275,105.76475 110.164,105.12875 109.69525,104.65975 L69.052,64.0165 Z M64,123 C32.01875,123 5,95.98125 5,64 C5,32.01875 32.01875,5 64,5 C78.1335,5 93.5255,11.454 104.74725,21.97375 L63.74875,62.21575 C63.27275,62.683 63.00325,63.32125 63,63.98825 C62.99675,64.65525 63.2605,65.29575 63.73225,65.76775 L104.355,106.3905 C93.167,116.68425 77.92475,123 64,123 Z" id="Shape"></path>
                    <path d="M49.832,109.34425 C35.183,104.75675 23.59325,93.3035 18.829,78.70675 C18.40025,77.39425 16.98925,76.67775 15.67675,77.106 C14.364,77.53425 13.6475,78.94575 14.07575,80.25825 C19.3405,96.389 32.149,109.046 48.338,114.11575 C48.58675,114.19375 48.83825,114.2305 49.08575,114.2305 C50.1495,114.2305 51.136,113.546 51.47075,112.477 C51.88325,111.15925 51.14975,109.75675 49.832,109.34425 Z" id="Shape"></path>
                    <path d="M69,21.5 C64.8645,21.5 61.5,24.8645 61.5,29 C61.5,33.1355 64.8645,36.5 69,36.5 C73.1355,36.5 76.5,33.1355 76.5,29 C76.5,24.8645 73.1355,21.5 69,21.5 Z M69,31.5 C67.6215,31.5 66.5,30.3785 66.5,29 C66.5,27.6215 67.6215,26.5 69,26.5 C70.3785,26.5 71.5,27.6215 71.5,29 C71.5,30.3785 70.3785,31.5 69,31.5 Z" id="Shape"></path>
                    <path d="M118,54 C112.486,54 108,58.486 108,64 C108,69.514 112.486,74 118,74 C123.514,74 128,69.514 128,64 C128,58.486 123.514,54 118,54 Z M118,69 C115.243,69 113,66.757 113,64 C113,61.243 115.243,59 118,59 C120.757,59 123,61.243 123,64 C123,66.757 120.757,69 118,69 Z" id="Shape"></path>
                    <path d="M93,54 C87.486,54 83,58.486 83,64 C83,69.514 87.486,74 93,74 C98.514,74 103,69.514 103,64 C103,58.486 98.514,54 93,54 Z M93,69 C90.243,69 88,66.757 88,64 C88,61.243 90.243,59 93,59 C95.757,59 98,61.243 98,64 C98,66.757 95.757,69 93,69 Z" id="Shape"></path>
                </g>
            </g>
        </g>
    </g>
</svg>