<?xml version="1.0" encoding="UTF-8"?>
<svg width="128px" height="128px" viewBox="0 0 128 128" version="1.1" xmlns="http://www.w3.org/2000/svg" xmlns:xlink="http://www.w3.org/1999/xlink">
    <!-- Generator: Sketch 48.2 (47327) - http://www.bohemiancoding.com/sketch -->
    <title>gamepad (1)</title>
    <desc>Created with Sketch.</desc>
    <defs></defs>
    <g id="RaidParty-Landing-Page-2" stroke="none" stroke-width="1" fill="none" fill-rule="evenodd" transform="translate(-305.000000, -1250.000000)">
        <g id="Group-12" transform="translate(211.000000, 1218.000000)" fill="#24CEC7" fill-rule="nonzero">
            <g id="Group-11">
                <g id="gamepad-(1)" transform="translate(94.000000, 32.000000)">
                    <path d="M108,63.5 C106.62,63.5 105.5,64.62 105.5,66 C105.5,67.38 106.62,68.5 108,68.5 C109.38,68.5 110.5,67.38 110.5,66 C110.5,64.62 109.38,63.5 108,63.5 Z" id="Shape"></path>
                    <path d="M100.5,56 C99.12,56 98,57.12 98,58.5 C98,59.88 99.12,61 100.5,61 C101.88,61 103,59.88 103,58.5 C103,57.12 101.88,56 100.5,56 Z" id="Shape"></path>
                    <path d="M100.5,71 C99.12,71 98,72.12 98,73.5 C98,74.88 99.12,76 100.5,76 C101.88,76 103,74.88 103,73.5 C103,72.12 101.88,71 100.5,71 Z" id="Shape"></path>
                    <path d="M93,63.5 C91.62,63.5 90.5,64.62 90.5,66 C90.5,67.38 91.62,68.5 93,68.5 C94.38,68.5 95.5,67.38 95.5,66 C95.5,64.62 94.38,63.5 93,63.5 Z" id="Shape"></path>
                    <path d="M64,68.5 C62.62,68.5 61.5,69.62 61.5,71 C61.5,72.38 62.62,73.5 64,73.5 C65.38,73.5 66.5,72.38 66.5,71 C66.5,69.62 65.38,68.5 64,68.5 Z" id="Shape"></path>
                    <path d="M27.5,68.5 C26.1195,68.5 25,69.61925 25,71 L25,76 C25,77.38075 26.1195,78.5 27.5,78.5 C28.8805,78.5 30,77.38075 30,76 L30,71 C30,69.61925 28.8805,68.5 27.5,68.5 Z" id="Shape"></path>
                    <path d="M27.5,53.5 C26.1195,53.5 25,54.61925 25,56 L25,61 C25,62.38075 26.1195,63.5 27.5,63.5 C28.8805,63.5 30,62.38075 30,61 L30,56 C30,54.61925 28.8805,53.5 27.5,53.5 Z" id="Shape"></path>
                    <path d="M37.5,63.5 L32.5,63.5 C31.1195,63.5 30,64.61925 30,66 C30,67.38075 31.1195,68.5 32.5,68.5 L37.5,68.5 C38.8805,68.5 40,67.38075 40,66 C40,64.61925 38.8805,63.5 37.5,63.5 Z" id="Shape"></path>
                    <path d="M22.5,63.5 L17.5,63.5 C16.1195,63.5 15,64.61925 15,66 C15,67.38075 16.1195,68.5 17.5,68.5 L22.5,68.5 C23.8805,68.5 25,67.38075 25,66 C25,64.61925 23.8805,63.5 22.5,63.5 Z" id="Shape"></path>
                    <path d="M127.8545,109.31825 L123.138,81.59975 C126.3225,76.99825 128,71.6285 128,66 C128,57.57725 124.064,49.54325 117.431,44.34325 L114.23625,34.439 C113.418,31.906 111.2565,29.968 108.59875,29.382 C103.322,28.2115 97.675,28.21225 92.404,29.38125 C89.74325,29.968 87.582,31.906 86.76325,34.44025 L83.56775,44.3475 C82.0005,45.57525 80.573,46.96675 79.305,48.50025 L74,48.50025 C74,45.83025 72.9595,43.3195 71.07025,41.43 C69.781,40.1405 68.20175,39.2475 66.48025,38.80975 L66.49,31.01275 C66.49325,27.6725 65.194,24.53075 62.8325,22.16675 C60.47075,19.802 57.33025,18.5 53.99,18.5 L34,18.5 C32.6215,18.5 31.5,17.3785 31.5,16 C31.5,15.333 31.76025,14.70525 32.23275,14.23275 C32.70525,13.76025 33.333,13.5 34,13.5 L89,13.5 C93.1355,13.5 96.5,10.1355 96.5,6 L96.5,2.5 C96.5,1.11925 95.3805,0 94,0 C92.6195,0 91.5,1.11925 91.5,2.5 L91.5,6 C91.5,7.3785 90.3785,8.5 89,8.5 L34,8.5 C31.9975,8.5 30.1145,9.28025 28.69725,10.69725 C27.28025,12.11425 26.5,13.9975 26.5,16 C26.5,20.1355 29.8645,23.5 34,23.5 L53.99,23.5 C55.994,23.5 57.878,24.28125 59.29525,25.7 C60.7125,27.11875 61.492,29.00375 61.49,31.007 L61.48025,38.82225 C57.1835,39.94375 54,43.862 54,48.5 L48.6945,48.5 C47.4275,46.967 46.00025,45.5755 44.43225,44.34725 L41.23625,34.43875 C40.418,31.90575 38.2565,29.96775 35.59875,29.38175 C30.322,28.21125 24.675,28.212 19.404,29.381 C16.74325,29.96775 14.582,31.90575 13.76325,34.44 L10.569,44.34325 C3.936,49.54325 0,57.57725 0,66 C0,71.6285 1.6775,76.99825 4.862,81.59975 L0.1455,109.31825 C0.1395,109.35475 0.134,109.39125 0.1295,109.42775 C-0.45775,114.129 1.004,118.86175 4.13925,122.413 C7.274,125.9635 11.78825,128 16.525,128 C21.992,128 26.12525,125.52875 29.92625,119.98725 C33.24425,115.15025 36.21425,108.205 40.32525,98.59225 C41.6895,95.40175 43.22125,91.821 44.912,87.9845 C56.65025,85.28175 71.351,85.28125 83.087,87.98525 C84.77375,91.81225 86.3065,95.39425 87.67125,98.5855 C91.783,108.1995 94.754,115.14575 98.0725,119.98425 C101.875,125.52775 106.0085,128 111.475,128 C116.2115,128 120.726,125.9635 123.86075,122.413 C126.996,118.86175 128.45775,114.12875 127.8705,109.42775 C127.86575,109.39125 127.8605,109.35475 127.8545,109.31825 Z M91.5215,35.976 C91.80025,35.113 92.53275,34.473 93.48375,34.26325 C98.05075,33.2505 102.94675,33.24975 107.5195,34.264 C108.4675,34.473 109.2,35.113 109.47825,35.975 L110.958,40.56275 C107.66975,39.20475 104.137,38.5 100.5,38.5 C96.863,38.5 93.33,39.20475 90.04225,40.56275 L91.5215,35.976 Z M64,43.5 C65.3345,43.5 66.58975,44.0205 67.53475,44.96525 C68.4795,45.91025 69,47.1655 69,48.5 L59,48.5 C59,45.75125 61.23625,43.50825 64,43.5 Z M18.5215,35.976 C18.80025,35.113 19.53275,34.473 20.48375,34.26325 C25.05075,33.2505 29.94675,33.24975 34.5195,34.264 C35.4675,34.473 36.2,35.113 36.47825,35.975 L37.958,40.56275 C34.66975,39.20475 31.137,38.5 27.5,38.5 C23.863,38.5 20.33,39.20475 17.04225,40.56275 L18.5215,35.976 Z M35.72775,96.6265 C27.34775,116.223 24.06575,123 16.525,123 C13.22175,123 10.0735,121.57975 7.8875,119.10375 C5.7125,116.64025 4.6925,113.361 5.0845,110.0995 L9.10975,86.44325 C14.11425,90.97525 20.585,93.5 27.5,93.5 C31.1045,93.5 34.66075,92.78075 37.96075,91.421 C37.174,93.245 36.42825,94.98825 35.72775,96.6265 Z M41.774,83.377 C41.7495,83.39725 41.72575,83.4175 41.70225,83.4385 C37.698,86.703 32.658,88.5 27.5,88.5 C20.36775,88.5 13.809,85.217 9.50575,79.49275 C6.558,75.57175 5,70.90625 5,66 C5,58.88575 8.4355,52.1085 14.19,47.8705 C18.0725,45.01125 22.675,43.5 27.5,43.5 C32.325,43.5 36.9275,45.01125 40.81,47.8705 C42.50275,49.117 44.0075,50.59075 45.29175,52.24925 C45.3935,52.42525 45.51575,52.58775 45.65575,52.733 C48.4965,56.6095 50,61.18925 50,66 C50,72.7415 47.00175,79.07525 41.774,83.377 Z M49.8745,81.97625 C53.18075,77.36125 55,71.8055 55,66 C55,61.59375 53.96725,57.3465 51.99125,53.5 L56.5,53.5 L71.5,53.5 L76.0075,53.5 C74.03225,57.3455 73,61.59275 73,66 C73,71.80575 74.81925,77.3615 78.12575,81.97625 C69.04375,80.635 58.9575,80.635 49.8745,81.97625 Z M120.1125,119.10375 C117.9265,121.57975 114.77825,123 111.475,123 C103.935,123 100.652,116.22125 92.2685,96.6195 C91.5685,94.983 90.8235,93.2415 90.038,91.4205 C93.3385,92.7805 96.895,93.5 100.5,93.5 C107.415,93.5 113.88575,90.97525 118.89025,86.44325 L122.9155,110.0995 C123.3075,113.361 122.2875,116.64025 120.1125,119.10375 Z M118.49425,79.49275 C114.191,85.217 107.63225,88.5 100.5,88.5 C95.342,88.5 90.302,86.703 86.29775,83.4385 C86.27425,83.41775 86.2505,83.39725 86.226,83.377 C80.99825,79.07525 78,72.7415 78,66 C78,61.09375 79.558,56.42825 82.50525,52.50775 C83.834,50.7415 85.41,49.18125 87.18975,47.8705 C91.0725,45.01125 95.675,43.5 100.5,43.5 C105.325,43.5 109.9275,45.01125 113.81,47.8705 C119.5645,52.1085 123,58.88575 123,66 C123,70.90625 121.442,75.57175 118.49425,79.49275 Z" id="Shape"></path>
                    <path d="M66.5,58.5 L61.5,58.5 C60.1195,58.5 59,59.61925 59,61 C59,62.38075 60.1195,63.5 61.5,63.5 L66.5,63.5 C67.8805,63.5 69,62.38075 69,61 C69,59.61925 67.8805,58.5 66.5,58.5 Z" id="Shape"></path>
                </g>
            </g>
        </g>
    </g>
</svg>