<?xml version="1.0" encoding="UTF-8"?>
<svg width="64px" height="64px" viewBox="0 0 64 64" version="1.1" xmlns="http://www.w3.org/2000/svg" xmlns:xlink="http://www.w3.org/1999/xlink">
    <!-- Generator: Sketch 48.2 (47327) - http://www.bohemiancoding.com/sketch -->
    <title>Group 6</title>
    <desc>Created with Sketch.</desc>
    <defs></defs>
    <g id="RaidParty-Rewards-Page-20th-April" stroke="none" stroke-width="1" fill="none" fill-rule="evenodd" transform="translate(-202.000000, -643.000000)">
        <g id="Group-20" transform="translate(202.000000, 507.000000)">
            <g id="Group-10">
                <g id="Group-18" transform="translate(0.000000, 136.000000)">
                    <g id="Group-6">
                        <polygon id="Rectangle-2-Copy-2" fill="#FFCA5D" points="0 2.62513381e-14 48.015625 0 64 15.9558105 64 64 0 64"></polygon>
                        <g id="Group-7" transform="translate(10.000000, 10.000000)" fill="#FFFFFF" fill-rule="nonzero">
                            <g id="cup-copy">
                                <path d="M13.901507,24.7824515 C11.3034676,23.93562 9.34834316,21.6761189 8.86539593,18.8571429 L7.53744683,18.8571429 C6.07499033,18.8571429 4.61243716,18.3071576 3.60001934,17.2070926 L1.68752417,15.3371618 C0.562572509,14.3471316 0,13.027186 0,11.4871706 L0,4.55714877 C0,2.68712336 1.46245649,1.25714286 3.37495166,1.25714286 L8.75,1.25714286 L8.75,0 L30,0 L30,1.80959862 C30.1782485,1.46511639 30.5359824,1.25714286 31.0000193,1.25714286 L36.6250193,1.25714286 C38.5375309,1.25714286 40,2.68713104 40,4.55716649 L40,11.4872256 C40,12.9172138 39.4375193,14.3472965 38.3124613,15.3372374 L36.3999497,17.2072728 C35.3874265,18.3071547 34.0374923,18.8571429 32.4624884,18.8571429 L29.8846309,18.8571429 C29.3352319,22.0643354 26.8802007,24.5473456 23.7408001,25.0497122 C23.8661063,25.2533111 23.9884362,25.3605551 24.1071165,25.3173772 L24.1071165,29.1769871 C24.1071165,29.8786521 24.535638,30.3465293 25.1785122,30.3465293 C25.8213865,30.3465293 26.25,30.8144065 26.25,31.5161721 L26.25,32.6857143 L30.3124765,32.6857143 C31.5156003,32.6857143 32.5,33.65553 32.5,34.8408296 L32.5,38.9714286 L35.1339628,38.9714286 C35.6919814,38.9714286 36.25,39.5999865 36.25,40.2285444 L36.25,42.7428842 C36.25,43.3714421 35.6919814,44 35.1339628,44 L6.11603717,44 C5.55801859,44 5,43.3714421 5,42.7428842 L5,40.2285444 C5,39.5999865 5.55801859,38.9714286 6.11603717,38.9714286 L6.25,38.9714286 L6.25,34.8408296 C6.25,33.65553 7.23439967,32.6857143 8.4375235,32.6857143 L11.25,32.6857143 L11.25,31.5160716 C11.25,30.8144065 11.6786135,30.3465293 12.3213957,30.3465293 C12.9641779,30.3465293 13.3927914,29.8787527 13.3927914,29.1769871 L13.3927914,25.3173772 C13.5560378,25.376769 13.7261952,25.1515569 13.901507,24.7824515 Z M8.75,3.45708377 L3.37504834,3.45708377 C2.70003867,3.45708377 2.25009668,3.89712868 2.25009668,4.55705423 L2.25009668,11.4870761 C2.25009668,12.3670714 2.58760151,13.2470666 3.26261118,13.7970519 L5.17510635,15.6670773 C5.85011601,16.3270974 6.63756284,16.6571074 7.53754351,16.6571074 L8.75,16.6571074 L8.75,3.45708377 Z M30,16.6571901 L32.4624884,16.6571901 C33.3624768,16.6571901 34.2624652,16.3271783 34.8249459,15.6671547 L36.7374575,13.7971192 C37.4124729,13.1370956 37.7499807,12.367131 37.7499807,11.487131 L37.7499807,4.55707196 C37.7499807,3.89704832 37.2999381,3.45709559 36.6250193,3.45709559 L31.0000193,3.45709559 C30.5359328,3.45709559 30.178233,3.24909252 30,2.90463556 L30,16.6571901 Z M21.8906837,15.0857143 C22,15.0857143 22,15.0857143 22,15.0857143 C22.1094102,14.9756812 22.1094102,14.8657426 22.1094102,14.7557096 L21.6718633,11.8957001 L23.6405898,9.91576628 C23.75,9.80573319 23.75,9.69570011 23.75,9.58576155 C23.75,9.475823 23.6406837,9.36578991 23.5312735,9.36578991 L20.7968633,8.9257521 L19.5937265,6.39574737 C19.5937265,6.39574737 19.4844102,6.28571429 19.375,6.28571429 C19.2656837,6.28571429 19.1562735,6.28571429 19.1562735,6.39574737 L17.9531367,8.9257521 L15.2187265,9.36578991 C15.1094102,9.36578991 15,9.47572847 15,9.58576155 C15,9.69579464 15,9.80573319 15,9.91576628 L16.9687265,11.8957001 L16.5311795,14.7557096 C16.5311795,14.8657426 16.5311795,14.9756812 16.6405898,15.0857143 C16.75,15.0857143 16.8593163,15.0857143 16.9687265,15.0857143 L19.375,13.7656954 L21.7812735,15.0857143 L21.8906837,15.0857143 Z" id="Combined-Shape"></path>
                            </g>
                        </g>
                    </g>
                </g>
            </g>
        </g>
    </g>
</svg>