<?xml version="1.0" encoding="UTF-8"?>
<svg width="1366px" height="560px" viewBox="0 0 1366 560" version="1.1" xmlns="http://www.w3.org/2000/svg" xmlns:xlink="http://www.w3.org/1999/xlink">
    <!-- Generator: Sketch 48.2 (47327) - http://www.bohemiancoding.com/sketch -->
    <title>Group 3</title>
    <desc>Created with Sketch.</desc>
    <defs>
        <rect id="path-1" x="0" y="0" width="1366" height="560"></rect>
    </defs>
    <g id="RaidParty-Landing-Page-2" stroke="none" stroke-width="1" fill="none" fill-rule="evenodd" transform="translate(0.000000, -2132.000000)">
        <g id="2" transform="translate(0.000000, 2132.000000)">
            <g id="Group-3">
                <mask id="mask-2" fill="white">
                    <use xlink:href="#path-1"></use>
                </mask>
                <use id="Rectangle-4" fill="#FFFFFF" xlink:href="#path-1"></use>
                <g id="Group-Copy" mask="url(#mask-2)">
                    <g transform="translate(1121.000000, 117.000000)">
                        <circle id="5" stroke="#E4E4E4" stroke-width="4" transform="translate(143.659132, 313.819917) rotate(104.000000) translate(-143.659132, -313.819917) " cx="143.659132" cy="313.819917" r="18"></circle>
                        <circle id="6" stroke="#E4E4E4" stroke-width="4" transform="translate(181.746293, 129.512926) rotate(148.000000) translate(-181.746293, -129.512926) " cx="181.746293" cy="129.512926" r="18"></circle>
                        <rect id="14" stroke="#E4E4E4" stroke-width="4" transform="translate(23.606746, 110.432228) rotate(68.000000) translate(-23.606746, -110.432228) " x="5.60674626" y="92.4322281" width="36" height="36"></rect>
                        <g id="15" stroke="none" stroke-width="1" fill-rule="evenodd" transform="translate(99.404887, 24.803412) rotate(32.000000) translate(-99.404887, -24.803412) translate(81.404887, 6.803412)">
                            <path d="M36,0 L0,36 L36,0 Z" id="Rectangle-8-Copy" stroke="#E4E4E4" stroke-width="4"></path>
                            <path d="M0,0 L36,36 L0,0 Z" id="Rectangle-8-Copy-2" stroke="#E4E4E4" stroke-width="4"></path>
                        </g>
                        <polygon id="23" stroke="#E4E4E4" stroke-width="4" transform="translate(25.455029, 259.980477) rotate(108.000000) translate(-25.455029, -259.980477) " points="25.4550289 241.980477 46.2396386 277.980477 4.67041918 277.980477"></polygon>
                        <polygon id="24" stroke="#E4E4E4" stroke-width="4" transform="translate(117.563982, 192.766118) rotate(-15.000000) translate(-117.563982, -192.766118) " points="117.563982 174.766118 138.348591 210.766118 96.7793719 210.766118"></polygon>
                    </g>
                </g>
                <g id="Group" mask="url(#mask-2)">
                    <g transform="translate(76.500000, 280.000000) scale(-1, 1) translate(-76.500000, -280.000000) translate(-27.000000, 112.000000)">
                        <circle id="5" stroke="#E4E4E4" stroke-width="4" transform="translate(143.659132, 313.819917) rotate(104.000000) translate(-143.659132, -313.819917) " cx="143.659132" cy="313.819917" r="18"></circle>
                        <circle id="6" stroke="#E4E4E4" stroke-width="4" transform="translate(181.746293, 129.512926) rotate(148.000000) translate(-181.746293, -129.512926) " cx="181.746293" cy="129.512926" r="18"></circle>
                        <rect id="14" stroke="#E4E4E4" stroke-width="4" transform="translate(23.606746, 110.432228) rotate(68.000000) translate(-23.606746, -110.432228) " x="5.60674626" y="92.4322281" width="36" height="36"></rect>
                        <g id="15" stroke="none" stroke-width="1" fill-rule="evenodd" transform="translate(99.404887, 24.803412) rotate(32.000000) translate(-99.404887, -24.803412) translate(81.404887, 6.803412)">
                            <path d="M36,0 L0,36 L36,0 Z" id="Rectangle-8-Copy" stroke="#E4E4E4" stroke-width="4"></path>
                            <path d="M0,0 L36,36 L0,0 Z" id="Rectangle-8-Copy-2" stroke="#E4E4E4" stroke-width="4"></path>
                        </g>
                        <polygon id="23" stroke="#E4E4E4" stroke-width="4" transform="translate(25.455029, 259.980477) rotate(108.000000) translate(-25.455029, -259.980477) " points="25.4550289 241.980477 46.2396386 277.980477 4.67041918 277.980477"></polygon>
                        <polygon id="24" stroke="#E4E4E4" stroke-width="4" transform="translate(117.563982, 192.766118) rotate(-15.000000) translate(-117.563982, -192.766118) " points="117.563982 174.766118 138.348591 210.766118 96.7793719 210.766118"></polygon>
                    </g>
                </g>
            </g>
        </g>
    </g>
</svg>